<svg width="30" height="30" viewBox="0 0 30 30" fill="none" xmlns="http://www.w3.org/2000/svg">
<path d="M21.22 14.489C21.22 18.0789 18.3099 20.989 14.72 20.989C11.1301 20.989 8.21997 18.0789 8.21997 14.489C8.21997 10.8992 11.1301 7.98901 14.72 7.98901C18.3099 7.98901 21.22 10.8992 21.22 14.489Z" fill="white"/>
<path d="M14.72 20.989C18.3099 20.989 21.22 18.0789 21.22 14.489C21.22 10.8992 18.3099 7.98901 14.72 7.98901C11.1301 7.98901 8.21997 10.8992 8.21997 14.489C8.21997 18.0789 11.1301 20.989 14.72 20.989ZM14.72 19.989C11.6824 19.989 9.21997 17.5266 9.21997 14.489C9.21997 11.4514 11.6824 8.98901 14.72 8.98901C17.7575 8.98901 20.22 11.4514 20.22 14.489C20.22 17.5266 17.7575 19.989 14.72 19.989Z" fill="black"/>
<path d="M18.2205 14.992L11.2205 14.992L11.22 13.992L18.22 13.992L18.2205 14.992Z" fill="black"/>
<path d="M23.367 23.8431L18.367 18.8431L19.0741 18.136L24.0741 23.136L23.367 23.8431Z" fill="black"/>
</svg>
