<svg width="32" height="32" viewBox="0 0 32 32" fill="none" xmlns="http://www.w3.org/2000/svg">
<path fill-rule="evenodd" clip-rule="evenodd" d="M17.5001 18C17.9557 17.3933 18.6812 17 19.5 17C20.3188 17 21.0443 17.3933 21.4999 18H23.0854C23.2913 17.4174 23.8469 17 24.5 17H26.5C27.3284 17 28 17.6716 28 18.5V20.5C28 21.3284 27.3284 22 26.5 22H24.5C23.8469 22 23.2913 21.5826 23.0854 21H21.4999C21.0443 21.6067 20.3188 22 19.5 22C18.6812 22 17.9557 21.6067 17.5001 21H15.9146C15.7087 21.5826 15.1531 22 14.5 22H12.5C11.6716 22 11 21.3284 11 20.5V18.5C11 17.6716 11.6716 17 12.5 17H14.5C15.1531 17 15.7087 17.4174 15.9146 18H17.5001ZM2.93935 2.93935C3.35528 2.52342 3.97593 2.38898 4.5267 2.59552L15.5267 6.72052C16.1415 6.95108 16.5349 7.55474 16.4976 8.21031C16.4602 8.86589 16.0008 9.42097 15.3638 9.58023L10.7369 10.7369L9.58023 15.3638C9.42097 16.0008 8.86589 16.4602 8.21031 16.4976C7.55474 16.5349 6.95108 16.1415 6.72052 15.5267L2.59552 4.5267C2.38898 3.97593 2.52342 3.35528 2.93935 2.93935Z" fill="white"/>
<path fill-rule="evenodd" clip-rule="evenodd" d="M3.64646 3.64646C3.7851 3.50782 3.99199 3.463 4.17558 3.53185L15.1756 7.65685C15.3805 7.7337 15.5117 7.93492 15.4992 8.15345C15.4868 8.37197 15.3336 8.557 15.1213 8.61009L9.91232 9.91232L8.61009 15.1213C8.557 15.3336 8.37197 15.4868 8.15345 15.4992C7.93492 15.5117 7.7337 15.3805 7.65685 15.1756L3.53185 4.17558C3.463 3.99199 3.50782 3.7851 3.64646 3.64646ZM12 18.5C12 18.2239 12.2239 18 12.5 18H14.5C14.7761 18 15 18.2239 15 18.5V19H18.0854C18.2913 18.4174 18.8469 18 19.5 18C20.1531 18 20.7087 18.4174 20.9146 19H24V18.5C24 18.2239 24.2239 18 24.5 18H26.5C26.7761 18 27 18.2239 27 18.5V20.5C27 20.7761 26.7761 21 26.5 21H24.5C24.2239 21 24 20.7761 24 20.5V20H20.9146C20.7087 20.5826 20.1531 21 19.5 21C18.8469 21 18.2913 20.5826 18.0854 20H15V20.5C15 20.7761 14.7761 21 14.5 21H12.5C12.2239 21 12 20.7761 12 20.5V18.5Z" fill="black"/>
</svg>
