<svg width="32" height="32" viewBox="0 0 32 32" fill="none" xmlns="http://www.w3.org/2000/svg">
<path fill-rule="evenodd" clip-rule="evenodd" d="M16.9999 20.0855C17.5276 19.8993 18.1386 20.0173 18.5607 20.4394C19.1465 21.0252 19.1464 21.9749 18.5606 22.5607L16.5604 24.5607C16.2791 24.842 15.8976 25 15.4998 25C15.1019 25 14.7204 24.8419 14.4391 24.5606L12.4393 22.5606C11.8535 21.9748 11.8536 21.0251 12.4394 20.4393C12.8614 20.0173 13.4723 19.8994 13.9999 20.0854L13.9999 16.9999L10.9145 16.9999C11.1007 17.5276 10.9827 18.1386 10.5606 18.5607C9.9748 19.1465 9.02505 19.1464 8.43929 18.5606L6.43929 16.5604C6.158 16.2791 5.99998 15.8976 6 15.4997C6.00002 15.1019 6.15807 14.7204 6.43939 14.4391L8.43939 12.4393C9.0252 11.8535 9.97495 11.8536 10.5607 12.4394C10.9827 12.8614 11.1006 13.4722 10.9146 13.9999L13.9999 13.9999L14 10.9146C13.4723 11.1007 12.8614 10.9827 12.4393 10.5607C11.8536 9.97487 11.8536 9.02513 12.4393 8.43934L14.4393 6.43934C14.7206 6.15804 15.1022 6 15.5 6C15.8978 6 16.2794 6.15804 16.5607 6.43933L18.5607 8.43934C19.1464 9.02513 19.1464 9.97487 18.5607 10.5607C18.1386 10.9827 17.5276 11.1007 17 10.9146L16.9999 13.9999L20.0854 14C19.8993 13.4723 20.0173 12.8614 20.4393 12.4393C21.0251 11.8535 21.9749 11.8535 22.5607 12.4393L24.5607 14.4393C24.842 14.7206 25 15.1022 25 15.5C25 15.8978 24.842 16.2793 24.5607 16.5607L22.5607 18.5607C21.9749 19.1464 21.0251 19.1464 20.4393 18.5607C20.0173 18.1386 19.8993 17.5276 20.0854 17L16.9999 16.9999L16.9999 20.0855Z" fill="white"/>
<path fill-rule="evenodd" clip-rule="evenodd" d="M13.8536 21.1465C13.6583 20.9512 13.3417 20.9512 13.1465 21.1464C12.9512 21.3417 12.9512 21.6583 13.1464 21.8535L15.1462 23.8535C15.24 23.9473 15.3672 24 15.4998 24C15.6324 24 15.7596 23.9473 15.8534 23.8536L17.8535 21.8536C18.0488 21.6583 18.0488 21.3417 17.8536 21.1465C17.6583 20.9512 17.3417 20.9512 17.1465 21.1464L15.9998 22.293L15.9999 15.9999L22.2929 16L21.1464 17.1464C20.9512 17.3417 20.9512 17.6583 21.1464 17.8535C21.3417 18.0488 21.6583 18.0488 21.8536 17.8535L23.8536 15.8535C23.9473 15.7598 24 15.6326 24 15.5C24 15.3674 23.9473 15.2402 23.8536 15.1464L21.8536 13.1464C21.6583 12.9512 21.3417 12.9512 21.1464 13.1464C20.9512 13.3417 20.9512 13.6583 21.1464 13.8535L22.2929 15L15.9999 14.9999L16 8.70709L17.1464 9.85355C17.3417 10.0488 17.6583 10.0488 17.8536 9.85355C18.0488 9.65829 18.0488 9.34171 17.8536 9.14645L15.8536 7.14645C15.7598 7.05268 15.6326 7 15.5 7C15.3674 7 15.2402 7.05268 15.1464 7.14645L13.1464 9.14645C12.9512 9.34171 12.9512 9.65829 13.1464 9.85355C13.3417 10.0488 13.6583 10.0488 13.8536 9.85355L15 8.70712L14.9999 14.9999L8.70717 14.9998L9.85354 13.8536C10.0488 13.6583 10.0488 13.3417 9.85357 13.1465C9.65832 12.9512 9.34173 12.9512 9.14646 13.1464L7.14646 15.1462C7.05269 15.24 7.00001 15.3672 7 15.4998C6.99999 15.6324 7.05267 15.7596 7.14643 15.8533L9.14643 17.8535C9.34168 18.0488 9.65827 18.0488 9.85354 17.8536C10.0488 17.6583 10.0488 17.3417 9.85357 17.1465L8.70704 15.9998L14.9999 15.9999L14.9998 22.2928L13.8536 21.1465Z" fill="black"/>
</svg>
