<svg width="32" height="32" viewBox="0 0 32 32" fill="none" xmlns="http://www.w3.org/2000/svg">
<g clip-path="url(#clip0)">
<path d="M5.72101 5.01999L8.81645 20.02L12.4424 14.5419L18.6744 12.8505L5.72101 5.01999Z" fill="black"/>
<path d="M18.9332 12.4228L5.97972 4.59226L5 4L5.23137 5.1212L8.32682 20.1212L8.56982 21.2987L9.23344 20.2961L12.7553 14.9752L18.8055 13.3332L19.933 13.0272L18.9332 12.4228ZM6.44211 6.0403L17.416 12.6742L12.3115 14.0595L12.1295 14.1089L12.0255 14.2661L9.06318 18.7416L6.44211 6.0403Z" fill="white"/>
<path d="M18.4645 18.9497L17.7574 19.6568L21.2929 23.1924L17.7574 26.7279L18.4645 27.435L22 23.8995L25.5355 27.435L26.2426 26.7279L22.7071 23.1924L26.2426 19.6568L25.5355 18.9497L22 22.4853L18.4645 18.9497Z" fill="black"/>
<path d="M24.1213 23.1924L26.9497 20.364L27.6569 19.6569L26.9497 18.9497L26.2426 18.2426L25.5355 17.5355L24.8284 18.2426L22 21.0711L19.1716 18.2426L18.4645 17.5355L17.7574 18.2426L17.0503 18.9497L16.3431 19.6569L17.0503 20.364L19.8787 23.1924L17.0503 26.0208L16.3431 26.7279L17.0503 27.435L17.7574 28.1421L18.4645 28.8492L19.1716 28.1421L22 25.3137L24.8284 28.1421L25.5355 28.8492L26.2426 28.1421L26.9497 27.435L27.6569 26.7279L26.9497 26.0208L24.1213 23.1924ZM25.5355 18.9497L26.2426 19.6569L25.5355 20.364L23.4142 22.4853L22.7071 23.1924L23.4142 23.8995L25.5355 26.0208L26.2426 26.7279L25.5355 27.435L24.8284 26.7279L22.7071 24.6066L22 23.8995L21.2929 24.6066L19.1716 26.7279L18.4645 27.435L17.7574 26.7279L18.4645 26.0208L20.5858 23.8995L21.2929 23.1924L20.5858 22.4853L18.4645 20.364L17.7574 19.6569L18.4645 18.9497L19.1716 19.6569L21.2929 21.7782L22 22.4853L22.7071 21.7782L24.8284 19.6569L25.5355 18.9497Z" fill="white"/>
</g>
<defs>
<clipPath id="clip0">
<rect width="32" height="32" fill="white"/>
</clipPath>
</defs>
</svg>
