<svg width="32" height="32" viewBox="0 0 32 32" fill="none" xmlns="http://www.w3.org/2000/svg">
<path fill-rule="evenodd" clip-rule="evenodd" d="M2.93935 2.93938C3.35528 2.52345 3.97593 2.38901 4.5267 2.59554L15.5267 6.72054C16.1415 6.95111 16.5349 7.55477 16.4976 8.21034C16.4602 8.86592 16.0008 9.421 15.3638 9.58026L10.7369 10.737L9.58023 15.3638C9.42097 16.0009 8.86589 16.4603 8.21031 16.4976C7.55474 16.5349 6.95108 16.1415 6.72052 15.5267L2.59552 4.52672C2.38898 3.97596 2.52342 3.35531 2.93935 2.93938Z" fill="white"/>
<path fill-rule="evenodd" clip-rule="evenodd" d="M4.17558 3.53185C3.99199 3.463 3.7851 3.50781 3.64646 3.64646C3.50782 3.7851 3.463 3.99198 3.53185 4.17557L7.65685 15.1756C7.7337 15.3805 7.93492 15.5117 8.15345 15.4992C8.37197 15.4868 8.557 15.3336 8.61009 15.1213L9.91232 9.91232L15.1213 8.61008C15.3336 8.55699 15.4868 8.37197 15.4992 8.15344C15.5117 7.93492 15.3805 7.7337 15.1756 7.65685L4.17558 3.53185Z" fill="black"/>
<path d="M19.5 13.5C19.0553 13.5 18.6563 13.6937 18.382 14H17.5C16.9477 14 16.5 14.4477 16.5 15C16.5 15.5523 16.9477 16 17.5 16H18.382C18.4191 16.0415 18.4585 16.0809 18.5 16.118V17.0638C18.0471 17.3797 17.75 17.9048 17.75 18.5C17.75 19.0952 18.0471 19.6203 18.5 19.9362V20.882C18.4585 20.9191 18.4191 20.9585 18.382 21H17.5C16.9477 21 16.5 21.4477 16.5 22C16.5 22.5523 16.9477 23 17.5 23H18.382C18.6563 23.3063 19.0553 23.5 19.5 23.5C19.9447 23.5 20.3437 23.3063 20.618 23H21.5C22.0523 23 22.5 22.5523 22.5 22C22.5 21.4477 22.0523 21 21.5 21H20.618C20.5809 20.9585 20.5415 20.9191 20.5 20.882V19.9362C20.9529 19.6203 21.25 19.0952 21.25 18.5C21.25 17.9048 20.9529 17.3797 20.5 17.0638V16.118C20.5415 16.0809 20.5809 16.0415 20.618 16H21.5C22.0523 16 22.5 15.5523 22.5 15C22.5 14.4477 22.0523 14 21.5 14H20.618C20.3437 13.6937 19.9447 13.5 19.5 13.5ZM19.75 18.5C19.75 18.6381 19.6381 18.75 19.5 18.75C19.3619 18.75 19.25 18.6381 19.25 18.5C19.25 18.3619 19.3619 18.25 19.5 18.25C19.6381 18.25 19.75 18.3619 19.75 18.5Z" fill="black" stroke="white" stroke-linecap="round"/>
</svg>
