<svg width="32" height="32" viewBox="0 0 32 32" fill="none" xmlns="http://www.w3.org/2000/svg">
<g id="cursor-hand-grabbing">
<path id="hand" d="M15.2502 12C14.8359 12 14.5002 12.3358 14.5002 12.75V15.5C14.5002 15.7761 14.2763 16 14.0002 16C13.724 16 13.5002 15.7761 13.5002 15.5V13.75C13.5002 13.3358 13.1644 13 12.7502 13C12.3359 13 12.0002 13.3358 12.0002 13.75V17.3886C12.0002 17.4866 11.9062 17.5659 11.8109 17.5889C11.7228 17.6101 11.6448 17.6289 11.5001 17.5C11.0744 17.1209 10.5003 16.9999 10.0001 17.5C9.49992 18 9.9998 18.5 10.4998 19C10.9825 19.4827 11.4654 19.9654 12.8585 21.1793C12.9084 21.2227 12.9542 21.2717 12.9957 21.3232C13.8206 22.3458 15.084 23 16.5002 23C18.9854 23 21.0001 20.9853 21.0001 18.5V17.2512C21.0001 17.2508 21.0002 17.2504 21.0002 17.25V14.75C21.0002 14.3358 20.6644 14 20.2502 14C19.8359 14 19.5002 14.3358 19.5002 14.75V15.5C19.5002 15.7761 19.2763 16 19.0002 16C18.724 16 18.5002 15.7761 18.5002 15.5V13.75C18.5002 13.3358 18.1644 13 17.7502 13C17.3359 13 17.0002 13.3358 17.0002 13.75V15.5C17.0002 15.7761 16.7763 16 16.5002 16C16.224 16 16.0002 15.7761 16.0002 15.5V12.75C16.0002 12.3358 15.6644 12 15.2502 12Z" fill="white"/>
<path id="hand (Stroke)" fill-rule="evenodd" clip-rule="evenodd" d="M13.5846 12.2114C13.8118 11.5084 14.4716 11 15.2501 11C16.0287 11 16.6885 11.5084 16.9157 12.2114C17.1637 12.0766 17.448 12 17.7501 12C18.5287 12 19.1885 12.5084 19.4157 13.2114C19.6637 13.0766 19.948 13 20.2501 13C21.2166 13 22.0001 13.7835 22.0001 14.75L22.0001 18.5C22.0001 21.5376 19.5377 24 16.5001 24C14.7688 24 13.2239 23.1989 12.2174 21.951C12.2121 21.9444 12.2078 21.9397 12.2048 21.9365C12.2025 21.934 12.2012 21.9329 12.2012 21.9329C12.2012 21.9329 12.201 21.9327 12.2012 21.9329C10.7892 20.7026 10.2899 20.2044 9.7927 19.7071C9.77975 19.6942 9.76612 19.6806 9.75189 19.6664C9.53545 19.4509 9.18058 19.0977 8.98038 18.6971C8.86022 18.4566 8.75709 18.13 8.80462 17.7506C8.85351 17.3605 9.04585 17.0399 9.29314 16.7927C9.72199 16.364 10.261 16.1385 10.8363 16.172C10.8918 16.1753 10.9465 16.1808 11.0001 16.1886V13.75C11.0001 12.7835 11.7836 12 12.7501 12C13.0523 12 13.3366 12.0766 13.5846 12.2114ZM12.0001 17.3886C12.0001 17.4866 11.9062 17.5659 11.8109 17.5889C11.7228 17.6101 11.6448 17.6289 11.5001 17.5C11.4549 17.4598 11.4081 17.4225 11.3599 17.3886C11.2519 17.3125 11.1369 17.2531 11.0177 17.2154C11.0119 17.2135 11.006 17.2117 11.0001 17.21C10.6758 17.1133 10.3226 17.1776 10.0001 17.5C9.49992 18 9.9998 18.5 10.4998 19C10.9825 19.4827 11.4654 19.9654 12.8585 21.1793C12.9083 21.2227 12.9542 21.2717 12.9957 21.3232C13.8206 22.3458 15.084 23 16.5001 23C18.9854 23 21.0001 20.9853 21.0001 18.5L21.0001 14.75C21.0001 14.3358 20.6644 14 20.2501 14C19.8359 14 19.5001 14.3358 19.5001 14.75V15.5C19.5001 15.7761 19.2763 16 19.0001 16C18.724 16 18.5001 15.7761 18.5001 15.5V13.75C18.5001 13.3358 18.1644 13 17.7501 13C17.3359 13 17.0001 13.3358 17.0001 13.75V15.5C17.0001 15.7761 16.7763 16 16.5001 16C16.224 16 16.0001 15.7761 16.0001 15.5V12.75C16.0001 12.3358 15.6644 12 15.2501 12C14.8359 12 14.5001 12.3358 14.5001 12.75V15.5C14.5001 15.7761 14.2763 16 14.0001 16C13.724 16 13.5001 15.7761 13.5001 15.5V13.75C13.5001 13.3358 13.1644 13 12.7501 13C12.3359 13 12.0001 13.3358 12.0001 13.75V17.3886Z" fill="black"/>
</g>
</svg>
