<svg width="30" height="30" viewBox="0 0 30 30" fill="none" xmlns="http://www.w3.org/2000/svg">
<path d="M14.999 21.03C18.0366 21.03 20.499 18.5676 20.499 15.53C20.499 14.6282 20.282 13.7771 19.8973 13.0261L19.9013 13.0261L19.8753 12.9836C19.7596 12.7625 19.6292 12.5501 19.4856 12.348L14.999 5.03003L10.5021 12.3625C10.3662 12.5551 10.2424 12.7568 10.1317 12.9665L10.0927 13.03H10.0987C9.71527 13.7801 9.49899 14.6298 9.49899 15.53C9.49899 18.5676 11.9614 21.03 14.999 21.03Z" fill="white"/>
<path d="M18.9893 13.4473L18.9983 13.4646L19.0072 13.482C19.3466 14.1308 19.5068 14.7528 19.499 15.53C19.499 18.0153 17.4843 20.03 14.999 20.03C12.5137 20.03 10.499 18.0153 10.499 15.53C10.4912 14.7541 10.6509 14.1332 10.9891 13.4852L11.001 13.4618L11.0024 13.4591L11.0161 13.4333C11.1111 13.2521 11.2013 13.1053 11.3192 12.9391L11.3377 12.9128L11.3546 12.8853L14.9989 6.94304L18.633 12.8706L18.6507 12.8995L18.6704 12.9272C18.795 13.1016 18.8899 13.2561 18.9893 13.4473ZM10.0927 13.03H10.0987C10.0982 13.031 10.0978 13.0319 10.0973 13.0328C10.0958 13.0358 10.0943 13.0387 10.0927 13.0417C9.93349 13.3551 9.80338 13.6858 9.70598 14.0302C9.57114 14.507 9.49899 15.0101 9.49899 15.53C9.49899 18.5676 11.9614 21.03 14.999 21.03C18.0366 21.03 20.499 18.5676 20.499 15.53C20.499 15.0085 20.4264 14.504 20.2908 14.026C20.1928 13.6803 20.0617 13.3484 19.9013 13.0341C19.9003 13.032 19.8993 13.03 19.8983 13.028C19.8979 13.0274 19.8976 13.0267 19.8973 13.0261L19.9013 13.0261L19.9004 13.0245L19.8973 13.0195L19.8753 12.9836C19.7596 12.7625 19.6292 12.5501 19.4856 12.348L19.2884 12.0263L15.5854 5.98657L14.999 5.03003L14.4124 5.98649L10.7062 12.0298L10.5021 12.3625C10.3662 12.5551 10.2424 12.7568 10.1317 12.9665L10.0987 13.0203L10.0942 13.0277L10.0927 13.03Z" fill="black"/>
<path d="M14.4993 18.0325L15.4993 18.032V16.0323H17.4995L17.499 15.0323H15.4993V13.032L14.4993 13.0325V15.0323H12.499L12.4995 16.0323H14.4993V18.0325Z" fill="black"/>
</svg>
