<svg width="32" height="32" viewBox="0 0 32 32" fill="none" xmlns="http://www.w3.org/2000/svg">
<path d="M4.72101 5.02002L7.81645 20.02L11.4424 14.5419L17.6744 12.8506L4.72101 5.02002Z" fill="black"/>
<path d="M17.9332 12.4228L4.97972 4.59226L4 4L4.23137 5.1212L7.32682 20.1212L7.56982 21.2987L8.23344 20.2961L11.7553 14.9752L17.8055 13.3332L18.933 13.0272L17.9332 12.4228ZM5.44211 6.0403L16.416 12.6742L11.3115 14.0595L11.1295 14.1089L11.0255 14.2661L8.06318 18.7416L5.44211 6.0403Z" fill="white"/>
<path d="M13.8675 21.6667L13.514 22.0202L13.8675 22.3738L15.8675 24.3738L16.5746 23.6667L15.4282 22.5202H16.2211H18.7212V25.0203V25.8132L17.5748 24.6668L16.8677 25.3739L18.8677 27.3739L19.2212 27.7275L19.5748 27.3739L21.5748 25.3739L20.8677 24.6668L19.7212 25.8132V25.0203V22.5202H22.2213H23.0142L21.8678 23.6667L22.5749 24.3738L24.5749 22.3738L24.9285 22.0202L24.5749 21.6667L22.5749 19.6667L21.8678 20.3738L23.0142 21.5202H22.2213H19.7212V19.0201V18.2272L20.8677 19.3736L21.5748 18.6665L19.5748 16.6665L19.2212 16.313L18.8677 16.6665L16.8677 18.6665L17.5748 19.3736L18.7212 18.2272V19.0201V21.5202H16.2211H15.4282L16.5746 20.3738L15.8675 19.6667L13.8675 21.6667Z" fill="black"/>
<path d="M18.1608 15.9596L16.1608 17.9596L15.8677 18.2527L15.4536 18.6668L15.1606 18.9598L13.1606 20.9598L12.8071 21.3133L12.1 22.0204L12.8071 22.7275L13.1606 23.0811L15.1606 25.0811L15.4536 25.3741L15.8677 25.7882L16.1608 26.0812L18.1608 28.0812L18.5143 28.4348L19.2214 29.1419L19.9285 28.4348L20.2821 28.0812L22.2821 26.0812L22.5751 25.7882L22.9892 25.3741L23.2822 25.0811L25.2822 23.0811L25.6358 22.7275L26.3429 22.0204L25.6358 21.3133L25.2822 20.9598L23.2822 18.9598L22.9892 18.6668L22.5751 18.2527L22.2821 17.9596L20.2821 15.9596L19.9285 15.6061L19.2214 14.899L18.5143 15.6061L18.1608 15.9596ZM15.4284 21.5204H16.2213H16.8426H17.7214H18.7214V20.5204V19.6416V19.0203V18.2274L18.2821 18.6668L17.9285 19.0203L17.7214 19.2274L17.575 19.3739L16.8679 18.6668L17.575 17.9596L18.0143 17.5203L18.5143 17.0203L18.7214 16.8132L18.8679 16.6668L19.2214 16.3132L19.575 16.6668L19.7214 16.8132L19.9285 17.0203L20.4285 17.5203L20.8679 17.9596L21.575 18.6668L20.8679 19.3739L20.7214 19.2274L20.5143 19.0203L20.1608 18.6668L19.7214 18.2274V19.0203V19.6416V20.5204V21.5204H20.7214H21.6002H22.2216H23.0145L22.5751 21.0811L22.2216 20.7275L22.0144 20.5204L21.868 20.374L22.5751 19.6669L23.2822 20.374L23.7216 20.8133L24.2216 21.3133L24.4287 21.5204L24.5751 21.6669L24.9287 22.0204L24.5751 22.374L24.4287 22.5204L24.2216 22.7275L23.7216 23.2275L23.2822 23.6669L22.5751 24.374L21.868 23.6669L22.0144 23.5204L22.2216 23.3133L22.5751 22.9598L23.0145 22.5204H22.2216H21.6002H20.7214H19.7214V23.5204V24.3992V25.0206V25.8135L20.1608 25.3741L20.5143 25.0206L20.7214 24.8134L20.8679 24.667L21.575 25.3741L20.8679 26.0812L20.4285 26.5206L19.9285 27.0206L19.7214 27.2277L19.575 27.3741L19.2214 27.7277L18.8679 27.3741L18.7214 27.2277L18.5143 27.0206L18.0143 26.5206L17.575 26.0812L16.8679 25.3741L17.575 24.667L17.7214 24.8134L17.9285 25.0206L18.2821 25.3741L18.7214 25.8135V25.0206V24.3992V23.5204V22.5204H17.7214H16.8426H16.2213H15.4284L15.8677 22.9598L16.2213 23.3133L16.4284 23.5204L16.5748 23.6669L15.8677 24.374L15.1606 23.6669L14.7213 23.2275L14.2213 22.7275L14.0142 22.5204L13.8677 22.374L13.5142 22.0204L13.8677 21.6669L14.0142 21.5204L14.2213 21.3133L14.7213 20.8133L15.1606 20.374L15.8677 19.6669L16.5748 20.374L16.4284 20.5204L16.2213 20.7275L15.8677 21.0811L15.4284 21.5204Z" fill="white"/>
</svg>
