<svg width="30" height="30" viewBox="0 0 30 30" fill="none" xmlns="http://www.w3.org/2000/svg">
<path d="M11.4297 16.0298H18.5782L18.7127 16.1762L19.4199 16.8833L20.127 17.5905L20.8341 18.2976L21.5412 17.5905L23.5412 15.5905L23.8947 15.2369L24.6018 14.5298L23.8947 13.8227L23.5412 13.4691L21.5412 11.4691L20.8341 10.762L20.127 11.4691L19.4199 12.1762L18.7127 12.8833L18.5625 13.0298H11.4258L11.2871 12.8833L10.58 12.1762L9.87288 11.4691L9.16578 10.762L8.45867 11.4691L6.45867 13.4691L6.10512 13.8227L5.39801 14.5298L6.10512 15.2369L6.45867 15.5905L8.45867 17.5905L9.16578 18.2976L9.87288 17.5905L10.58 16.8833L11.2871 16.1762L11.4297 16.0298ZM9.51933 15.0298H8.72644L9.16578 15.4691L9.51933 15.8227L9.72644 16.0298L9.87288 16.1762L9.16578 16.8833L8.45867 16.1762L8.01933 15.7369L7.51933 15.2369L7.31222 15.0298L7.16578 14.8833L6.81222 14.5298L7.16578 14.1762L7.31222 14.0298L7.51933 13.8227L8.01933 13.3227L8.45867 12.8833L9.16578 12.1762L9.87288 12.8833L9.72644 13.0298L9.51933 13.2369L9.16578 13.5905L8.72644 14.0298H9.51933H10.1407H19.8592H20.4805H21.2734L20.8341 13.5905L20.4805 13.2369L20.2734 13.0298L20.127 12.8833L20.8341 12.1762L21.5412 12.8833L21.9805 13.3227L22.4805 13.8227L22.6876 14.0298L22.8341 14.1762L23.1876 14.5298L22.8341 14.8833L22.6876 15.0298L22.4805 15.2369L21.9805 15.7369L21.5412 16.1762L20.8341 16.8833L20.127 16.1762L20.2734 16.0298L20.4805 15.8227L20.8341 15.4691L21.2734 15.0298H20.4805H19.8592H10.1407H9.51933Z" fill="white"/>
<path d="M13.5002 10.9597V18.1082L13.3538 18.2427L12.6467 18.9499L11.9396 19.657L11.2325 20.3641L11.9396 21.0712L13.9396 23.0712L14.2931 23.4247L15.0002 24.1318L15.7073 23.4247L16.0609 23.0712L18.0609 21.0712L18.768 20.3641L18.0609 19.657L17.3538 18.9499L16.6467 18.2427L16.5002 18.0925V10.9558L16.6467 10.8171L17.3538 10.11L18.0609 9.40285L18.768 8.69575L18.0609 7.98864L16.0609 5.98864L15.7073 5.63509L15.0002 4.92798L14.2931 5.63509L13.9396 5.98864L11.9396 7.98864L11.2325 8.69575L11.9396 9.40285L12.6467 10.11L13.3538 10.8171L13.5002 10.9597ZM14.5002 9.0493V8.25641L14.0609 8.69575L13.7073 9.0493L13.5002 9.25641L13.3538 9.40285L12.6467 8.69575L13.3538 7.98864L13.7931 7.5493L14.2931 7.0493L14.5002 6.84219L14.6467 6.69575L15.0002 6.34219L15.3538 6.69575L15.5002 6.84219L15.7073 7.0493L16.2073 7.5493L16.6467 7.98864L17.3538 8.69575L16.6467 9.40285L16.5002 9.25641L16.2931 9.0493L15.9396 8.69575L15.5002 8.25641V9.0493V9.67062V19.3892V20.0105V20.8034L15.9396 20.3641L16.2931 20.0105L16.5002 19.8034L16.6467 19.657L17.3538 20.3641L16.6467 21.0712L16.2073 21.5105L15.7073 22.0105L15.5002 22.2176L15.3538 22.3641L15.0002 22.7176L14.6467 22.3641L14.5002 22.2176L14.2931 22.0105L13.7931 21.5105L13.3538 21.0712L12.6467 20.3641L13.3538 19.657L13.5002 19.8034L13.7073 20.0105L14.0609 20.3641L14.5002 20.8034V20.0105V19.3892V9.67062V9.0493Z" fill="white"/>
<path d="M7.16556 14.176L6.81201 14.5296L7.16556 14.8831L9.16556 16.8831L9.87267 16.176L8.72622 15.0296H9.51912H20.4803H21.2732L20.1267 16.176L20.8338 16.8831L22.8338 14.8831L23.1874 14.5296L22.8338 14.176L20.8338 12.176L20.1267 12.8831L21.2732 14.0296H20.4803H9.51912H8.72622L9.87267 12.8831L9.16556 12.176L7.16556 14.176Z" fill="black"/>
<path d="M15.354 6.69553L15.0005 6.34198L14.6469 6.69553L12.6469 8.69553L13.354 9.40264L14.5005 8.25619V9.04909V20.0103V20.8032L13.354 19.6567L12.6469 20.3639L14.6469 22.3639L15.0005 22.7174L15.354 22.3639L17.354 20.3639L16.6469 19.6567L15.5005 20.8032V20.0103V9.04909V8.25619L16.6469 9.40264L17.354 8.69553L15.354 6.69553Z" fill="black"/>
</svg>
