<svg width="32" height="32" viewBox="0 0 32 32" fill="none" xmlns="http://www.w3.org/2000/svg">
<path fill-rule="evenodd" clip-rule="evenodd" d="M19.1213 20L22.5607 16.5607C23.1464 15.9749 23.1464 15.0251 22.5607 14.4393C21.9749 13.8536 21.0251 13.8536 20.4393 14.4393L14.4393 20.4393C14.0103 20.8683 13.882 21.5135 14.1142 22.074C14.3463 22.6345 14.8933 23 15.5 23H23.5C24.3284 23 25 22.3284 25 21.5C25 20.6716 24.3284 20 23.5 20H19.1213ZM2.93935 2.93935C3.35528 2.52342 3.97593 2.38898 4.5267 2.59552L15.5267 6.72052C16.1415 6.95108 16.5349 7.55474 16.4976 8.21031C16.4602 8.86589 16.0008 9.42097 15.3638 9.58023L10.7369 10.7369L9.58023 15.3638C9.42097 16.0008 8.86589 16.4602 8.21031 16.4976C7.55474 16.5349 6.95108 16.1415 6.72052 15.5267L2.59552 4.5267C2.38898 3.97593 2.52342 3.35528 2.93935 2.93935Z" fill="white"/>
<path fill-rule="evenodd" clip-rule="evenodd" d="M3.64646 3.64646C3.7851 3.50782 3.99199 3.463 4.17558 3.53185L15.1756 7.65685C15.3805 7.7337 15.5117 7.93492 15.4992 8.15345C15.4868 8.37197 15.3336 8.557 15.1213 8.61009L9.91232 9.91232L8.61009 15.1213C8.557 15.3336 8.37197 15.4868 8.15345 15.4992C7.93492 15.5117 7.7337 15.3805 7.65685 15.1756L3.53185 4.17558C3.463 3.99199 3.50782 3.7851 3.64646 3.64646ZM21.8536 15.8536C22.0488 15.6583 22.0488 15.3417 21.8536 15.1464C21.6583 14.9512 21.3417 14.9512 21.1464 15.1464L15.1464 21.1464C15.0034 21.2894 14.9607 21.5045 15.0381 21.6913C15.1155 21.8782 15.2978 22 15.5 22H23.5C23.7761 22 24 21.7761 24 21.5C24 21.2239 23.7761 21 23.5 21H16.7071L21.8536 15.8536Z" fill="black"/>
</svg>
