<svg width="32" height="32" viewBox="0 0 32 32" fill="none" xmlns="http://www.w3.org/2000/svg">
<path d="M4.72101 5.02002L7.81645 20.02L11.4424 14.5419L17.6744 12.8506L4.72101 5.02002Z" fill="black"/>
<path d="M17.9332 12.4228L4.97972 4.59226L4 4L4.23137 5.1212L7.32682 20.1212L7.56982 21.2987L8.23344 20.2961L11.7553 14.9752L17.8055 13.3332L18.933 13.0272L17.9332 12.4228ZM5.44211 6.0403L16.416 12.6742L11.3115 14.0595L11.1295 14.1089L11.0255 14.2661L8.06318 18.7416L5.44211 6.0403Z" fill="white"/>
<path fill-rule="evenodd" clip-rule="evenodd" d="M16.8677 25.3739L19.2212 27.7275L21.5748 25.3739L20.8677 24.6668L19.7212 25.8132V18.2272L20.8677 19.3736L21.5748 18.6665L19.2212 16.313L16.8677 18.6665L17.5748 19.3736L18.7212 18.2272V25.8132L17.5748 24.6668L16.8677 25.3739ZM17.5748 23.2385L15.4393 25.3739L19.2211 29.156L23.0031 25.3739L20.8677 23.2385V20.8019L23.0031 18.6665L19.2211 14.8848L15.4393 18.6665L17.5748 20.802V23.2385Z" fill="white"/>
<path d="M18.7212 22.5202V25.0203V25.8132L17.5748 24.6668L16.8677 25.3739L18.8677 27.3739L19.2212 27.7275L19.5748 27.3739L21.5748 25.3739L20.8677 24.6668L19.7212 25.8132V25.0203V22.5202V21.5202V19.0201V18.2272L20.8677 19.3736L21.5748 18.6665L19.5748 16.6665L19.2212 16.313L18.8677 16.6665L16.8677 18.6665L17.5748 19.3736L18.7212 18.2272V19.0201V21.5202V22.5202Z" fill="black"/>
</svg>
