<svg width="32" height="32" viewBox="0 0 32 32" fill="none" xmlns="http://www.w3.org/2000/svg">
<path fill-rule="evenodd" clip-rule="evenodd" d="M21.1282 24.7676L25.1083 20.7876L24.1282 19.7989L21.8483 22.0788L21.1282 22.7893L20.408 22.0788L18.1367 19.7989L17.1395 20.7876L21.1282 24.7676ZM21.1134 21.3699L18.141 18.3864L15.7215 20.7853L21.1289 26.1812L26.5194 20.7906L24.1312 18.3817L21.1436 21.3693L21.1282 21.3845L21.1134 21.3699Z" fill="white"/>
<path d="M21.8483 22.0788L24.1282 19.7989L25.1083 20.7876L21.1282 24.7677L17.1395 20.7876L18.1367 19.7989L20.408 22.0788L21.1282 22.7893L21.8483 22.0788Z" fill="#010101"/>
<path d="M4.72101 5.02002L7.81645 20.02L11.4424 14.5419L17.6744 12.8506L4.72101 5.02002Z" fill="black"/>
<path d="M17.9332 12.4228L4.97972 4.59226L4 4L4.23137 5.1212L7.32682 20.1212L7.56982 21.2987L8.23344 20.2961L11.7553 14.9752L17.8055 13.3332L18.933 13.0272L17.9332 12.4228ZM5.44211 6.0403L16.416 12.6742L11.3115 14.0595L11.1295 14.1089L11.0255 14.2661L8.06318 18.7416L5.44211 6.0403Z" fill="white"/>
</svg>
