<svg width="32" height="32" viewBox="0 0 32 32" fill="none" xmlns="http://www.w3.org/2000/svg">
<path fill-rule="evenodd" clip-rule="evenodd" d="M2.93933 2.93935C3.35526 2.52342 3.97591 2.38898 4.52667 2.59552L15.5267 6.72052C16.1415 6.95108 16.5349 7.55474 16.4976 8.21031C16.4602 8.86589 16.0008 9.42097 15.3638 9.58023L10.7369 10.7369L9.5802 15.3638C9.42094 16.0008 8.86586 16.4602 8.21028 16.4976C7.55471 16.5349 6.95105 16.1415 6.72049 15.5267L2.59549 4.5267C2.38896 3.97593 2.52339 3.35528 2.93933 2.93935ZM9.9123 9.91232L8.61006 15.1213C8.55697 15.3336 8.37194 15.4868 8.15342 15.4992C7.93489 15.5117 7.73368 15.3805 7.65682 15.1756L3.53182 4.17557C3.46298 3.99199 3.50779 3.7851 3.64643 3.64646C3.78508 3.50782 3.99196 3.463 4.17555 3.53185L15.1755 7.65685C15.3805 7.7337 15.5116 7.93492 15.4992 8.15345C15.4867 8.37197 15.3336 8.557 15.1213 8.61008L9.9123 9.91232Z" fill="white"/>
<path fill-rule="evenodd" clip-rule="evenodd" d="M17.8787 20L15.4393 17.5607C14.8535 16.9749 14.8535 16.0251 15.4393 15.4393C16.0251 14.8536 16.9748 14.8536 17.5606 15.4393L20 17.8787L22.4393 15.4393C23.0251 14.8536 23.9748 14.8536 24.5606 15.4393C25.1464 16.0251 25.1464 16.9749 24.5606 17.5607L22.1213 20L24.5606 22.4393C25.1464 23.0251 25.1464 23.9749 24.5606 24.5607C23.9748 25.1464 23.0251 25.1464 22.4393 24.5607L20 22.1213L17.5606 24.5607C16.9748 25.1464 16.0251 25.1464 15.4393 24.5607C14.8535 23.9749 14.8535 23.0251 15.4393 22.4393L17.8787 20Z" fill="white"/>
<path fill-rule="evenodd" clip-rule="evenodd" d="M4.17555 3.53185C3.99196 3.463 3.78507 3.50782 3.64643 3.64646C3.50779 3.7851 3.46297 3.99199 3.53182 4.17558L7.65682 15.1756C7.73367 15.3805 7.93489 15.5117 8.15342 15.4992C8.37194 15.4868 8.55697 15.3336 8.61005 15.1213L9.91229 9.91232L15.1213 8.61009C15.3336 8.557 15.4867 8.37197 15.4992 8.15345C15.5116 7.93492 15.3805 7.7337 15.1755 7.65685L4.17555 3.53185Z" fill="black"/>
<path fill-rule="evenodd" clip-rule="evenodd" d="M16.1464 16.1464C16.3417 15.9512 16.6583 15.9512 16.8535 16.1464L20 19.2929L23.1464 16.1464C23.3417 15.9512 23.6583 15.9512 23.8535 16.1464C24.0488 16.3417 24.0488 16.6583 23.8535 16.8536L20.7071 20L23.8535 23.1464C24.0488 23.3417 24.0488 23.6583 23.8535 23.8536C23.6583 24.0488 23.3417 24.0488 23.1464 23.8536L20 20.7071L16.8535 23.8536C16.6583 24.0488 16.3417 24.0488 16.1464 23.8536C15.9512 23.6583 15.9512 23.3417 16.1464 23.1464L19.2929 20L16.1464 16.8536C15.9512 16.6583 15.9512 16.3417 16.1464 16.1464Z" fill="black"/>
</svg>
