<svg width="33" height="32" viewBox="0 0 33 32" fill="none" xmlns="http://www.w3.org/2000/svg">
<g filter="url(#filter0_d_469_31426)">
<path fill-rule="evenodd" clip-rule="evenodd" d="M6.20711 3.79292C5.92111 3.50692 5.49099 3.42137 5.11732 3.57615C4.74364 3.73093 4.5 4.09557 4.5 4.50003V8.50003C4.5 10.7092 6.29086 12.5 8.5 12.5C9.04358 12.5 9.56183 12.3916 10.0343 12.1952C9.81889 13.2379 10.2087 14.3714 11.1564 15.0403L17.6345 19.6131C18.199 20.0116 18.9685 19.9458 19.4571 19.4571C19.9457 18.9685 20.0116 18.199 19.6131 17.6345L15.0403 11.1564C14.3714 10.2088 13.2379 9.81891 12.1952 10.0343C12.3916 9.56186 12.5 9.04361 12.5 8.50003C12.5 6.29089 10.7091 4.50003 8.5 4.50003H7.85779C7.25363 4.50003 6.67421 4.26003 6.24701 3.83282L6.20711 3.79292ZM5.5 4.50003L5.5399 4.53993C5.82019 4.82022 6.14602 5.04451 6.5 5.2056C6.64135 5.26993 6.7872 5.32417 6.93642 5.36788C6.34088 5.66573 5.84214 6.12841 5.5 6.69614V5.79166V4.57983V4.50003ZM13.1421 11.0171C12.5733 10.8944 11.951 11.049 11.5 11.5C11.049 11.951 10.8944 12.5733 11.0171 13.1421L13.1421 11.0171Z" fill="white" style="fill:white;fill-opacity:1;"/>
<path d="M5.11732 3.57615L5.40433 4.26906L5.40433 4.26906L5.11732 3.57615ZM6.20711 3.79292L6.73744 3.26259L6.73744 3.26259L6.20711 3.79292ZM10.0343 12.1952L10.7688 12.3469C10.825 12.0748 10.7262 11.7939 10.5119 11.6169C10.2976 11.4399 10.003 11.396 9.74642 11.5026L10.0343 12.1952ZM11.1564 15.0403L10.7238 15.653L10.7238 15.653L11.1564 15.0403ZM17.6345 19.6131L18.067 19.0004L18.067 19.0004L17.6345 19.6131ZM19.6131 17.6345L20.2258 17.202L20.2258 17.202L19.6131 17.6345ZM15.0403 11.1564L15.653 10.7239L15.653 10.7239L15.0403 11.1564ZM12.1952 10.0343L11.5026 9.74645C11.3959 10.0031 11.4399 10.2976 11.6169 10.5119C11.7938 10.7262 12.0748 10.8251 12.3469 10.7688L12.1952 10.0343ZM6.24701 3.83282L6.77734 3.30249L6.77734 3.30249L6.24701 3.83282ZM5.5 4.50003L6.03033 3.9697C5.81583 3.7552 5.49324 3.69103 5.21299 3.80712C4.93273 3.92321 4.75 4.19668 4.75 4.50003L5.5 4.50003ZM6.5 5.2056L6.18935 5.88824L6.18935 5.88824L6.5 5.2056ZM6.93642 5.36788L7.2719 6.03867C7.54769 5.90074 7.71096 5.60806 7.68343 5.30092C7.6559 4.99379 7.44318 4.73481 7.14725 4.64813L6.93642 5.36788ZM5.5 6.69614H4.75C4.75 7.03298 4.97457 7.3285 5.2991 7.41873C5.62363 7.50896 5.9685 7.37176 6.14237 7.08326L5.5 6.69614ZM13.1421 11.0171L13.6724 11.5474C13.8666 11.3533 13.9391 11.0685 13.8615 10.8051C13.7839 10.5417 13.5686 10.3418 13.3002 10.2839L13.1421 11.0171ZM11.5 11.5L12.0303 12.0304L12.0303 12.0304L11.5 11.5ZM11.0171 13.1421L10.2839 13.3002C10.3418 13.5686 10.5417 13.7839 10.8051 13.8615C11.0685 13.9391 11.3532 13.8666 11.5474 13.6725L11.0171 13.1421ZM5.40433 4.26906C5.49775 4.23036 5.60528 4.25175 5.67678 4.32325L6.73744 3.26259C6.23694 2.7621 5.48423 2.61237 4.8303 2.88324L5.40433 4.26906ZM5.25 4.50003C5.25 4.39891 5.31091 4.30775 5.40433 4.26906L4.8303 2.88324C4.17637 3.15411 3.75 3.79222 3.75 4.50003H5.25ZM5.25 8.50003V4.50003H3.75V8.50003H5.25ZM8.5 11.75C6.70507 11.75 5.25 10.295 5.25 8.50003H3.75C3.75 11.1234 5.87665 13.25 8.5 13.25V11.75ZM9.74642 11.5026C9.36357 11.6618 8.94304 11.75 8.5 11.75V13.25C9.14412 13.25 9.76009 13.1214 10.3222 12.8877L9.74642 11.5026ZM11.5889 14.4276C10.8976 13.9397 10.6106 13.1128 10.7688 12.3469L9.29982 12.0434C9.02721 13.3629 9.51985 14.8032 10.7238 15.653L11.5889 14.4276ZM18.067 19.0004L11.5889 14.4276L10.7238 15.653L17.202 20.2258L18.067 19.0004ZM18.9268 18.9268C18.6963 19.1573 18.3333 19.1884 18.067 19.0004L17.202 20.2258C18.0647 20.8348 19.2407 20.7342 19.9874 19.9875L18.9268 18.9268ZM19.0003 18.067C19.1883 18.3333 19.1573 18.6963 18.9268 18.9268L19.9874 19.9875C20.7342 19.2407 20.8348 18.0648 20.2258 17.202L19.0003 18.067ZM14.4276 11.5889L19.0003 18.067L20.2258 17.202L15.653 10.7239L14.4276 11.5889ZM12.3469 10.7688C13.1128 10.6106 13.9396 10.8977 14.4276 11.5889L15.653 10.7239C14.8031 9.51989 13.3629 9.02724 12.0434 9.29985L12.3469 10.7688ZM11.75 8.50003C11.75 8.94307 11.6618 9.3636 11.5026 9.74645L12.8877 10.3222C13.1214 9.76011 13.25 9.14414 13.25 8.50003H11.75ZM8.5 5.25003C10.2949 5.25003 11.75 6.7051 11.75 8.50003H13.25C13.25 5.87668 11.1234 3.75003 8.5 3.75003V5.25003ZM7.85779 5.25003H8.5V3.75003H7.85779V5.25003ZM5.71668 4.36315C6.28453 4.93101 7.05471 5.25003 7.85779 5.25003V3.75003C7.45254 3.75003 7.06389 3.58905 6.77734 3.30249L5.71668 4.36315ZM5.67678 4.32325L5.71668 4.36315L6.77734 3.30249L6.73744 3.26259L5.67678 4.32325ZM6.07023 4.0096L6.03033 3.9697L4.96967 5.03036L5.00957 5.07026L6.07023 4.0096ZM6.81065 4.52296C6.53765 4.39872 6.2864 4.22577 6.07023 4.0096L5.00957 5.07026C5.35398 5.41467 5.7544 5.6903 6.18935 5.88824L6.81065 4.52296ZM7.14725 4.64813C7.03216 4.61442 6.91968 4.57258 6.81065 4.52296L6.18935 5.88824C6.36303 5.96728 6.54223 6.03393 6.72559 6.08764L7.14725 4.64813ZM6.14237 7.08326C6.41149 6.6367 6.80404 6.27265 7.2719 6.03867L6.60095 4.6971C5.87772 5.0588 5.27279 5.62013 4.85763 6.30902L6.14237 7.08326ZM4.75 5.79166V6.69614H6.25V5.79166H4.75ZM4.75 4.57983V5.79166H6.25V4.57983H4.75ZM4.75 4.50003V4.57983H6.25V4.50003H4.75ZM13.3002 10.2839C12.4959 10.1105 11.6104 10.3289 10.9697 10.9697L12.0303 12.0304C12.2916 11.7691 12.6506 11.6784 12.984 11.7502L13.3002 10.2839ZM10.9697 10.9697C10.3289 11.6105 10.1105 12.4959 10.2839 13.3002L11.7502 12.984C11.6783 12.6506 11.7691 12.2916 12.0303 12.0304L10.9697 10.9697ZM11.5474 13.6725L13.6724 11.5474L12.6118 10.4868L10.4867 12.6118L11.5474 13.6725Z" fill="white" style="fill:white;fill-opacity:1;"/>
<path fill-rule="evenodd" clip-rule="evenodd" d="M5.11732 3.57615C5.49099 3.42137 5.92111 3.50692 6.20711 3.79292L6.24701 3.83282C6.67421 4.26003 7.25363 4.50003 7.85779 4.50003H8.5C10.7091 4.50003 12.5 6.29089 12.5 8.50003C12.5 9.04361 12.3916 9.56186 12.1952 10.0343C13.2379 9.81891 14.3714 10.2088 15.0403 11.1564L19.6131 17.6345C20.0116 18.199 19.9457 18.9685 19.4571 19.4571C18.9685 19.9458 18.199 20.0116 17.6345 19.6131L11.1564 15.0403C10.2087 14.3714 9.81889 13.2379 10.0343 12.1952C9.56183 12.3916 9.04358 12.5 8.5 12.5C6.29086 12.5 4.5 10.7092 4.5 8.50003V4.50003C4.5 4.09557 4.74364 3.73093 5.11732 3.57615ZM5.5399 4.53993L5.5 4.50003V4.57983V5.79166V8.50003C5.5 10.1569 6.84315 11.5 8.5 11.5C10.1569 11.5 11.5 10.1569 11.5 8.50003C11.5 6.84317 10.1569 5.50003 8.5 5.50003H7.85779C7.38481 5.50003 6.92237 5.39781 6.5 5.2056C6.14602 5.04451 5.82019 4.82022 5.5399 4.53993ZM13.3455 15.3616L17.7604 18.4779L17.8837 18.565L18.0893 18.7101L18.2111 18.7961C18.378 18.9139 18.6055 18.8945 18.75 18.75C18.8944 18.6056 18.9139 18.3781 18.7961 18.2112L18.7101 18.0893L18.565 17.8838L18.4779 17.7604L15.3616 13.3456L13.3455 15.3616ZM12.5165 14.7764L14.7764 12.5166L14.2233 11.7331C13.5842 10.8277 12.2836 10.7164 11.5 11.5C10.7164 12.2837 10.8277 13.5843 11.733 14.2234L12.5165 14.7764Z" fill="black" fill-opacity="0.9" style="fill:black;fill-opacity:0.9;"/>
</g>
<defs>
<filter id="filter0_d_469_31426" x="-2" y="-2" width="38" height="38" filterUnits="userSpaceOnUse" color-interpolation-filters="sRGB">
<feFlood flood-opacity="0" result="BackgroundImageFix"/>
<feColorMatrix in="SourceAlpha" type="matrix" values="0 0 0 0 0 0 0 0 0 0 0 0 0 0 0 0 0 0 127 0" result="hardAlpha"/>
<feOffset dy="1"/>
<feGaussianBlur stdDeviation="1.5"/>
<feColorMatrix type="matrix" values="0 0 0 0 0 0 0 0 0 0 0 0 0 0 0 0 0 0 0.35 0"/>
<feBlend mode="normal" in2="BackgroundImageFix" result="effect1_dropShadow_469_31426"/>
<feBlend mode="normal" in="SourceGraphic" in2="effect1_dropShadow_469_31426" result="shape"/>
</filter>
</defs>
</svg>
