<svg width="33" height="32" viewBox="0 0 33 32" fill="none" xmlns="http://www.w3.org/2000/svg">
<g filter="url(#filter0_d_73257_75725)">
<path fill-rule="evenodd" clip-rule="evenodd" d="M27.5 23.5C27.5 25.1569 26.1569 26.5 24.5 26.5C22.8431 26.5 21.5 25.1569 21.5 23.5C21.5 21.8431 22.8431 20.5 24.5 20.5C26.1569 20.5 27.5 21.8431 27.5 23.5Z" fill="white" style="fill:white;fill-opacity:1;"/>
</g>
<path d="M26.5 23.5C26.5 24.6046 25.6046 25.5 24.5 25.5C23.3954 25.5 22.5 24.6046 22.5 23.5C22.5 22.3954 23.3954 21.5 24.5 21.5C25.6046 21.5 26.5 22.3954 26.5 23.5Z" fill="black" style="fill:black;fill-opacity:1;"/>
<g filter="url(#filter1_d_73257_75725)">
<path d="M5.17588 2.50102C5.64352 2.08839 6.28007 1.91722 6.896 2.04182L14.5941 3.59966L14.9766 3.68667C18.8555 4.65492 21.583 8.16706 21.5381 12.1899L22.4358 13.0876C23.2163 13.8686 23.2171 15.1344 22.4365 15.9153L16.9136 21.4382C16.5386 21.8131 16.0296 22.0238 15.4994 22.0238C14.9692 22.0238 14.4602 21.813 14.0852 21.4382L13.1875 20.5405C9.16492 20.5852 5.6532 17.857 4.68491 13.9784L4.5979 13.5972L3.03937 5.89845C2.9064 5.24151 3.11169 4.56118 3.58558 4.08718L5.08542 2.58734L5.17588 2.50102ZM12.9423 18.5414H13.2434L13.9995 18.5242L13.2434 18.5401C13.1019 18.5433 12.9612 18.5408 12.8215 18.5352C12.8617 18.5369 12.902 18.5405 12.9423 18.5414Z" fill="white" style="fill:white;fill-opacity:1;"/>
</g>
<path d="M5.88579 3.21083C6.11376 3.03393 6.40965 2.96251 6.69648 3.02024L14.3952 4.58015L14.7336 4.65611C18.0823 5.49188 20.4623 8.47127 20.5382 11.9219V12.2686L20.5306 12.5966L21.728 13.7939C22.1185 14.1845 22.1185 14.8176 21.728 15.2082L16.2058 20.7304C16.0183 20.9178 15.7639 21.0231 15.4987 21.0231C15.2337 21.023 14.979 20.9178 14.7916 20.7304L13.5942 19.533L13.2662 19.5406C9.67021 19.622 6.5179 17.1955 5.65447 13.7353L5.57782 13.3976L4.0179 5.69882C3.95172 5.3706 4.05531 5.03035 4.29204 4.79353L5.79188 3.29369L5.88579 3.21083ZM6.55837 13.1987C7.17926 16.2641 9.84146 18.4721 12.9417 18.5407H13.2427L13.9989 18.5234L15.4987 20.0233L21.0209 14.5011L19.5211 13.0012L19.5383 12.2451C19.6092 9.1181 17.4995 6.37648 14.4905 5.62562L14.1971 5.56002L6.49899 4.0008L6.10262 4.39716L11.263 9.55752C11.7532 9.20855 12.3514 9.00104 12.999 9.00095C14.6556 9.0011 15.9985 10.344 15.9987 12.0006C15.9986 13.6574 14.6551 15.001 12.9983 15.001C11.342 15.0006 9.9989 13.6577 9.99861 12.0013C9.99861 11.3537 10.2069 10.7549 10.5559 10.2646L5.39552 5.10427L4.99915 5.50064L6.55837 13.1987ZM12.999 10.0008C11.8946 10.0011 10.9985 10.8969 10.9985 12.0013L11.0089 12.205C11.1043 13.1464 11.8532 13.8951 12.7946 13.9908L12.9983 14.0011C14.0339 14.0011 14.8854 13.2136 14.9877 12.205L14.9988 12.0006C14.9986 10.9651 14.2113 10.1135 13.2027 10.0112L12.999 10.0008Z" fill="black" fill-opacity="0.9" style="fill:black;fill-opacity:0.9;"/>
<defs>
<filter id="filter0_d_73257_75725" x="18.5" y="18.5" width="12" height="12" filterUnits="userSpaceOnUse" color-interpolation-filters="sRGB">
<feFlood flood-opacity="0" result="BackgroundImageFix"/>
<feColorMatrix in="SourceAlpha" type="matrix" values="0 0 0 0 0 0 0 0 0 0 0 0 0 0 0 0 0 0 127 0" result="hardAlpha"/>
<feOffset dy="1"/>
<feGaussianBlur stdDeviation="1.5"/>
<feColorMatrix type="matrix" values="0 0 0 0 0 0 0 0 0 0 0 0 0 0 0 0 0 0 0.35 0"/>
<feBlend mode="normal" in2="BackgroundImageFix" result="effect1_dropShadow_73257_75725"/>
<feBlend mode="normal" in="SourceGraphic" in2="effect1_dropShadow_73257_75725" result="shape"/>
</filter>
<filter id="filter1_d_73257_75725" x="-2" y="-2" width="30" height="30" filterUnits="userSpaceOnUse" color-interpolation-filters="sRGB">
<feFlood flood-opacity="0" result="BackgroundImageFix"/>
<feColorMatrix in="SourceAlpha" type="matrix" values="0 0 0 0 0 0 0 0 0 0 0 0 0 0 0 0 0 0 127 0" result="hardAlpha"/>
<feOffset dy="1"/>
<feGaussianBlur stdDeviation="1.5"/>
<feColorMatrix type="matrix" values="0 0 0 0 0 0 0 0 0 0 0 0 0 0 0 0 0 0 0.35 0"/>
<feBlend mode="normal" in2="BackgroundImageFix" result="effect1_dropShadow_73257_75725"/>
<feBlend mode="normal" in="SourceGraphic" in2="effect1_dropShadow_73257_75725" result="shape"/>
</filter>
</defs>
</svg>
